<?xml version="1.0" encoding="UTF-8"?><svg xmlns="http://www.w3.org/2000/svg" viewBox="0 0 116.5 72"><defs><style>.d{fill:#231f20;}</style></defs><g id="a"/><g id="b"><g id="c"><path class="d" d="M55.06,65.26c.28,.24,.58,.48,.87,.72-5.71,3.8-12.56,6.02-19.93,6.02C16.12,72,0,55.88,0,36S16.12,0,36,0c7.37,0,14.22,2.22,19.93,6.02-.29,.24-.59,.47-.87,.72-8.48,7.38-13.35,18.05-13.35,29.26s4.86,21.88,13.35,29.26ZM80.5,0C73.13,0,66.28,2.22,60.57,6.02c.29,.24,.59,.47,.87,.72,8.48,7.38,13.35,18.04,13.35,29.26s-4.86,21.88-13.34,29.26c-.28,.24-.58,.48-.87,.72,5.71,3.8,12.56,6.02,19.93,6.02,19.88,0,36-16.12,36-36S100.38,0,80.5,0Zm-22.25,7.71c-.46,.36-.92,.74-1.36,1.13-7.59,6.6-12.39,16.32-12.39,27.16s4.8,20.56,12.39,27.16c.44,.39,.9,.76,1.36,1.13,.46-.37,.92-.74,1.36-1.13,7.59-6.6,12.39-16.32,12.39-27.16s-4.8-20.56-12.39-27.16c-.44-.39-.9-.76-1.36-1.13"/></g></g></svg>